<svg width="24" height="29" viewBox="0 0 24 29" fill="none" xmlns="http://www.w3.org/2000/svg">
<path d="M10 10C10 9.46957 10.2107 8.96086 10.5858 8.58579C10.9609 8.21071 11.4696 8 12 8C12.5304 8 13.0391 8.21071 13.4142 8.58579C13.7893 8.96086 14 9.46957 14 10C15.1484 10.543 16.1274 11.3883 16.8321 12.4453C17.5367 13.5023 17.9404 14.7311 18 16V19C18.0753 19.6217 18.2954 20.2171 18.6428 20.7381C18.9902 21.2592 19.4551 21.6914 20 22H4C4.54494 21.6914 5.00981 21.2592 5.35719 20.7381C5.70457 20.2171 5.92474 19.6217 6 19V16C6.05956 14.7311 6.4633 13.5023 7.16795 12.4453C7.8726 11.3883 8.85159 10.543 10 10" stroke="#4B5563" stroke-linecap="round" stroke-linejoin="round"/>
<path d="M9 22V23C9 23.7956 9.31607 24.5587 9.87868 25.1213C10.4413 25.6839 11.2044 26 12 26C12.7956 26 13.5587 25.6839 14.1213 25.1213C14.6839 24.5587 15 23.7956 15 23V22" stroke="#4B5563" stroke-linecap="round" stroke-linejoin="round"/>
<circle cx="17" cy="6" r="6" fill="#6D28D9"/>
<path d="M17.288 9.08C17 9.08 16.7013 9.04267 16.392 8.968C16.0827 8.89333 15.8133 8.78133 15.584 8.632C15.4507 8.54133 15.3707 8.44 15.344 8.328C15.3173 8.21067 15.3307 8.10667 15.384 8.016C15.4373 7.92 15.5173 7.856 15.624 7.824C15.736 7.792 15.8613 7.81333 16 7.888C16.2187 8.00533 16.4293 8.09067 16.632 8.144C16.8347 8.192 17.0427 8.216 17.256 8.216C17.976 8.216 18.336 7.93333 18.336 7.368C18.336 7.10133 18.2453 6.904 18.064 6.776C17.888 6.64267 17.6293 6.576 17.288 6.576H16.776C16.6267 6.576 16.512 6.53867 16.432 6.464C16.3573 6.38933 16.32 6.28533 16.32 6.152C16.32 6.01867 16.3573 5.91467 16.432 5.84C16.512 5.76533 16.6267 5.728 16.776 5.728H17.192C17.4907 5.728 17.728 5.656 17.904 5.512C18.08 5.36267 18.168 5.15733 18.168 4.896C18.168 4.65067 18.0853 4.464 17.92 4.336C17.76 4.208 17.5253 4.144 17.216 4.144C17.0187 4.144 16.832 4.168 16.656 4.216C16.4853 4.25867 16.296 4.34133 16.088 4.464C15.9653 4.53867 15.8533 4.56 15.752 4.528C15.6507 4.49067 15.5707 4.42667 15.512 4.336C15.4587 4.24 15.4427 4.136 15.464 4.024C15.4853 3.912 15.56 3.816 15.688 3.736C16.1573 3.432 16.696 3.28 17.304 3.28C17.8907 3.28 18.3467 3.41333 18.672 3.68C18.9973 3.94133 19.16 4.30667 19.16 4.776C19.16 5.08 19.0827 5.34667 18.928 5.576C18.7733 5.80533 18.5627 5.97067 18.296 6.072C18.6213 6.16267 18.8747 6.33067 19.056 6.576C19.2373 6.816 19.328 7.10933 19.328 7.456C19.328 7.95733 19.1467 8.35467 18.784 8.648C18.4213 8.936 17.9227 9.08 17.288 9.08Z" fill="white"/>
</svg>
